HIERARCHY
ROOT Hips
{
  OFFSET 0.000000 0.000000 0.000000
  CHANNELS 6 Xposition Yposition Zposition Zrotation Xrotation Yrotation
  JOINT LeftUpLeg
  {
    OFFSET 0.068447 -0.100487 -0.014419
    CHANNELS 3 Zrotation Xrotation Yrotation
    JOINT LeftLeg
    {
      OFFSET 0.057942 -0.343846 0.045653
      CHANNELS 3 Zrotation Xrotation Yrotation
      JOINT LeftFoot
      {
        OFFSET -0.033280 -0.384447 -0.101058
        CHANNELS 3 Zrotation Xrotation Yrotation
        JOINT LeftToeBase
        {
          OFFSET 0.054402 -0.058270 0.117509
          CHANNELS 3 Zrotation Xrotation Yrotation
          End Site
          {
            OFFSET 0 0 0.1
          }
        }
      }
    }
  }
  JOINT RightUpLeg
  {
    OFFSET -0.068710 -0.124909 -0.012737
    CHANNELS 3 Zrotation Xrotation Yrotation
    JOINT RightLeg
    {
      OFFSET -0.040229 -0.320579 0.053287
      CHANNELS 3 Zrotation Xrotation Yrotation
      JOINT RightFoot
      {
        OFFSET 0.009173 -0.394141 -0.126002
        CHANNELS 3 Zrotation Xrotation Yrotation
        JOINT RightToeBase
        {
          OFFSET -0.025806 -0.055437 0.114259
          CHANNELS 3 Zrotation Xrotation Yrotation
          End Site
          {
            OFFSET 0 0 0.1
          }
        }
      }
    }
  }
  JOINT Spine
  {
    OFFSET -0.002107 0.079915 -0.030386
    CHANNELS 3 Zrotation Xrotation Yrotation
    JOINT Spine1
    {
      OFFSET 0.004513 0.139374 0.043408
      CHANNELS 3 Zrotation Xrotation Yrotation
      JOINT Spine2
      {
        OFFSET 0.005006 0.077783 0.017139
        CHANNELS 3 Zrotation Xrotation Yrotation
        JOINT Neck
        {
          OFFSET 0.001865 0.178866 0.004059
          CHANNELS 3 Zrotation Xrotation Yrotation
          JOINT RightArm
          {
            OFFSET 0.011677 0.048123 0.070884
            CHANNELS 3 Zrotation Xrotation Yrotation
            End Site
            {
              OFFSET 0 0 0.1
            }
          }
        }
        JOINT RightShoulder
        {
          OFFSET 0.071709 0.095788 -0.000080
          CHANNELS 3 Zrotation Xrotation Yrotation
          JOINT LeftArm
          {
            OFFSET 0.112659 0.000601 -0.022199
            CHANNELS 3 Zrotation Xrotation Yrotation
            JOINT LeftForeArm
            {
              OFFSET 0.079251 -0.220407 -0.013016
              CHANNELS 3 Zrotation Xrotation Yrotation
              JOINT LeftHand
              {
                OFFSET -0.013375 -0.154805 0.066785
                CHANNELS 3 Zrotation Xrotation Yrotation
                End Site
                {
                  OFFSET 0 0 0.1
                }
              }
            }
          }
        }
        JOINT LeftShoulder
        {
          OFFSET -0.074370 0.108902 0.007181
          CHANNELS 3 Zrotation Xrotation Yrotation
          JOINT RightForeArm
          {
            OFFSET -0.106973 0.004408 -0.005743
            CHANNELS 3 Zrotation Xrotation Yrotation
            JOINT RightHand
            {
              OFFSET -0.087050 -0.219836 -0.029902
              CHANNELS 3 Zrotation Xrotation Yrotation
              JOINT LeftHandEnd
              {
                OFFSET 0.030567 -0.178379 0.111727
                CHANNELS 3 Zrotation Xrotation Yrotation
                End Site
                {
                  OFFSET 0 0 0.1
                }
              }
            }
          }
        }
      }
    }
  }
}
MOTION
Frames: 9
Frame Time: 0.05000000
0.240193 0.934785 0.708163 -0.000000 0.000000 -42.238965 -40.115463 -47.692386 58.646607 69.371481 -20.816701 -22.969662 -25.479987 9.512736 1.265781 -0.663104 14.552677 60.136031 50.267200 43.069190 37.896340 -64.408109 -4.674176 -12.163748 -10.743943 26.838641 3.612887 4.409157 9.885273 23.646661 21.009733 -2.670658 42.734266 -27.522655 27.626582 7.024827 2.176530 -4.976823 -0.170091 8.618083 -7.180037 0.516314 15.961463 -34.381238 46.885429 39.021891 42.753838 53.456610 40.879372 26.796085 -60.852427 -65.195689 -44.995372 -30.366816 -3.533181 -26.540578 1.241768 -41.759355 -45.715336 53.477234 -35.491204 -9.421642 -45.382693 67.780946 39.333217 -19.221791 38.584595 -10.157425 0.891998
0.255047 0.936864 0.728410 -0.000000 0.000000 -42.611645 -39.865065 -48.051450 59.130719 69.635003 -20.471081 -23.027351 -25.465171 9.254515 1.134984 -1.151652 15.089812 60.540972 49.874057 43.521863 38.681060 -64.377405 -4.354749 -12.497974 -10.725882 26.902961 3.593244 4.250917 10.041843 23.782541 20.874063 -2.369142 43.048104 -27.296180 27.489916 6.872985 1.170968 -4.698231 -0.290749 9.462631 -7.476245 0.597386 15.989828 -34.503787 46.857049 38.802256 43.352886 54.303658 40.116411 26.856214 -61.264766 -64.972495 -45.011526 -30.526377 -4.305648 -25.788109 0.794685 -41.596108 -46.028709 53.782835 -35.309432 -10.432778 -46.338368 66.957076 39.219722 -19.567548 39.826268 -10.465120 0.624778
0.268540 0.944674 0.736943 -0.000000 0.000000 -42.984339 -39.925789 -48.540614 59.306264 69.902248 -20.229119 -23.010460 -25.298541 9.034589 1.059757 -1.677244 15.961008 60.778683 49.582438 43.912537 39.246084 -64.441567 -3.882481 -12.671598 -10.768167 26.683740 3.580853 4.054351 10.867135 24.387266 20.332939 -1.990454 43.341309 -26.956638 26.811771 6.606246 0.315800 -4.358372 -0.388872 10.089041 -7.521796 0.637420 16.322048 -34.796822 46.795187 38.669132 43.900034 54.928327 40.204255 26.725517 -61.815904 -63.579387 -44.854839 -29.682565 -4.959767 -29.151427 0.870891 -41.132661 -46.435652 54.665450 -36.672309 -10.842601 -47.861815 66.556906 38.591032 -20.270706 44.357602 -12.089593 0.243738
0.276922 0.947787 0.741304 -0.000000 0.000000 -43.357046 -39.517168 -48.916102 60.044041 69.799070 -20.091700 -23.284654 -24.910324 8.633717 0.946556 -2.326895 16.678161 61.420826 48.881997 44.257931 40.283862 -64.208580 -3.163551 -13.061682 -10.930058 26.462465 3.587836 4.185069 10.642285 24.789303 20.400496 -1.442967 43.616697 -27.612873 26.410126 6.659470 -1.055431 -4.132402 -0.577430 11.444669 -6.972748 0.725978 16.641278 -34.936561 47.211052 39.151635 44.579192 54.758910 40.160186 25.670206 -61.104357 -60.540875 -46.064224 -26.309746 -3.067755 -41.573332 3.930967 -40.723305 -46.932091 55.586225 -37.297616 -12.062082 -50.067785 64.363645 38.228359 -20.465152 53.403210 -14.502414 -0.054329
0.270355 0.945273 0.741972 -0.000000 0.000000 -43.729786 -39.155238 -49.340057 60.769554 69.937511 -20.279260 -23.475365 -25.000263 8.412671 0.916171 -2.301433 16.600391 62.040826 48.601467 44.647337 40.835411 -63.986014 -3.289518 -13.248362 -11.254957 26.366345 3.623896 4.077089 10.759039 25.316044 20.272383 -1.381063 43.976704 -27.609108 26.693559 6.715926 0.031344 -4.729803 -0.485691 10.348461 -6.751931 0.622584 16.840226 -34.947949 47.446078 38.389264 44.641282 55.676807 39.893542 24.929627 -60.265313 -58.773559 -45.447972 -24.604282 -2.091295 -45.651420 5.333933 -40.051329 -47.228565 56.634976 -38.164241 -12.307801 -51.218531 63.440869 38.449460 -20.498663 55.900334 -15.108791 -0.441504
0.274993 0.944201 0.745164 -0.000000 0.000000 -44.102549 -38.937595 -49.674661 61.155930 70.099119 -20.663825 -23.422688 -25.375440 8.486320 1.007436 -1.566309 15.894375 62.077273 48.822277 45.008358 40.679946 -64.106013 -3.828569 -13.048419 -11.646542 26.161178 3.708054 4.030498 11.280720 26.023062 20.070843 -1.230943 44.320389 -27.592844 26.392729 6.671430 1.911837 -5.169943 -0.247263 8.784777 -6.736643 0.482396 16.962877 -34.817823 47.843646 37.494636 44.601314 56.680531 41.009524 25.521770 -61.503171 -60.139005 -45.614777 -26.387050 -1.574327 -41.509967 4.498977 -39.644467 -47.593063 57.371807 -38.559806 -11.336632 -50.798178 64.725160 38.930020 -20.686111 52.564557 -13.724286 -0.480057
0.292875 0.950940 0.762667 -0.000000 0.000000 -44.475364 -38.716272 -50.033977 61.575640 70.257958 -20.318218 -23.471279 -25.281182 8.163395 0.889836 -2.351798 17.081359 62.486264 48.171146 45.395228 41.717352 -64.079510 -3.103286 -13.452361 -11.589800 26.107723 3.688623 3.952605 11.603145 26.273146 19.620649 -0.761386 44.607020 -27.265641 25.598631 6.357417 -0.515925 -4.340782 -0.527776 11.021370 -6.886693 0.666419 17.137068 -35.108043 48.012898 37.831712 45.564991 57.101605 40.357616 25.449174 -62.133378 -58.710603 -46.054093 -25.428865 -2.777389 -45.677362 4.700727 -39.349739 -47.929050 57.896401 -39.278628 -12.844663 -52.896597 63.907244 38.069821 -21.832915 57.801395 -15.381268 -1.273138
0.296818 0.953278 0.771378 -0.000000 0.000000 -44.848228 -38.198809 -50.509476 62.591543 70.270089 -20.163210 -23.891490 -24.780208 7.976449 0.754249 -3.001603 17.231796 63.018032 47.897021 45.805021 42.285117 -64.137007 -2.678262 -13.631121 -11.650474 26.180212 3.697482 4.003062 11.162661 26.526623 20.171956 -0.239013 44.890743 -27.913433 25.559918 6.444890 -1.427592 -4.229117 -0.644169 11.834520 -6.681630 0.720782 17.130372 -35.018219 48.194802 38.109228 46.036366 56.930914 39.791350 25.664780 -61.985040 -59.859365 -47.466185 -25.993197 -0.206237 -44.485885 5.892863 -39.385365 -48.347294 58.016749 -37.424995 -13.201210 -52.415049 63.260096 40.308586 -20.878377 55.072206 -12.804258 -0.676996
0.292709 0.942322 0.767771 -0.000000 0.000000 -45.221166 -37.323926 -50.874187 64.022075 70.479975 -21.234014 -24.248441 -25.929011 8.385618 0.930332 -2.161067 16.429889 63.463882 48.004857 46.237293 42.367194 -64.093893 -3.529342 -13.605321 -12.270959 26.656213 3.899115 4.137225 10.949782 26.480557 20.584735 -0.575897 45.325747 -27.557242 26.192158 6.542133 0.313516 -4.236709 -0.380553 10.095881 -7.193133 0.622750 17.472892 -35.267211 49.345026 36.439218 45.719691 58.816037 38.567033 27.230981 -62.784360 -63.562263 -45.491806 -30.571284 -4.917496 -28.652441 0.398597 -38.894923 -48.393553 58.460268 -35.871425 -12.687400 -50.920738 66.373931 43.258962 -21.639047 41.754760 -8.872778 0.342082
